<?xml version="1.0" encoding="UTF-8"?>
<svg width="3300px" height="2200px" viewBox="0 0 3300 2200" version="1.1" xmlns="http://www.w3.org/2000/svg" xmlns:xlink="http://www.w3.org/1999/xlink">
    <title>pin-cross</title>
    <g id="Page-1" stroke="none" stroke-width="1" fill="none" fill-rule="evenodd">
        <g id="shoppin">
            <g id="Notes">
                <rect id="artboard" fill="#FFFFFF" fill-rule="nonzero" x="0" y="0" width="3300" height="2200"></rect>
                <line x1="263" y1="292" x2="3036" y2="292" id="Path" stroke="#000000" stroke-width="0.5"></line>
                <text id="Weight/Scale-Variations" fill="#000000" fill-rule="nonzero" font-family="Helvetica-Bold, Helvetica" font-size="13" font-weight="bold">
                    <tspan x="263" y="322">Weight/Scale Variations</tspan>
                </text>
                <text id="Ultralight" fill="#000000" fill-rule="nonzero" font-family="Helvetica" font-size="13" font-weight="normal">
                    <tspan x="533.711" y="322">Ultralight</tspan>
                </text>
                <text id="Thin" fill="#000000" fill-rule="nonzero" font-family="Helvetica" font-size="13" font-weight="normal">
                    <tspan x="843.422" y="322">Thin</tspan>
                </text>
                <text id="Light" fill="#000000" fill-rule="nonzero" font-family="Helvetica" font-size="13" font-weight="normal">
                    <tspan x="1138.63" y="322">Light</tspan>
                </text>
                <text id="Regular" fill="#000000" fill-rule="nonzero" font-family="Helvetica" font-size="13" font-weight="normal">
                    <tspan x="1426.84" y="322">Regular</tspan>
                </text>
                <text id="Medium" fill="#000000" fill-rule="nonzero" font-family="Helvetica" font-size="13" font-weight="normal">
                    <tspan x="1723.06" y="322">Medium</tspan>
                </text>
                <text id="Semibold" fill="#000000" fill-rule="nonzero" font-family="Helvetica" font-size="13" font-weight="normal">
                    <tspan x="2015.77" y="322">Semibold</tspan>
                </text>
                <text id="Bold" fill="#000000" fill-rule="nonzero" font-family="Helvetica" font-size="13" font-weight="normal">
                    <tspan x="2326.48" y="322">Bold</tspan>
                </text>
                <text id="Heavy" fill="#000000" fill-rule="nonzero" font-family="Helvetica" font-size="13" font-weight="normal">
                    <tspan x="2618.19" y="322">Heavy</tspan>
                </text>
                <text id="Black" fill="#000000" fill-rule="nonzero" font-family="Helvetica" font-size="13" font-weight="normal">
                    <tspan x="2917.4" y="322">Black</tspan>
                </text>
                <line x1="263" y1="1903" x2="3036" y2="1903" id="Path" stroke="#000000" stroke-width="0.5"></line>
                <g id="Group" transform="translate(264.367190, 1918.068400)" fill="#000000" fill-rule="nonzero">
                    <path d="M7.88086,15.761678 C12.18751,15.761678 15.77151,12.18746 15.77151,7.88082 C15.77151,3.5742 12.17771,0 7.87109,0 C3.57422,0 -8.8817842e-16,3.5742 -8.8817842e-16,7.88082 C-8.8817842e-16,12.18746 3.58398,15.761678 7.88086,15.761678 Z M7.88086,14.277303 C4.33593,14.277303 1.5039,11.43551 1.5039,7.88082 C1.5039,4.3261 4.32617,1.4843 7.87109,1.4843 C11.42581,1.4843 14.26761,4.3261 14.2773352,7.88082 C14.28711,11.43551 11.43551,14.277303 7.88086,14.277303 Z M5.02929,8.61324 L7.13867,8.61324 L7.13867,10.73238 C7.13867,11.17183 7.43164,11.47457 7.86133,11.47457 C8.31054,11.47457 8.60351,11.17183 8.60351,10.73238 L8.60351,8.61324 L10.73241,8.61324 C11.17191,8.61324 11.47461,8.32027 11.47461,7.89058 C11.47461,7.45113 11.17191,7.1484 10.73241,7.1484 L8.60351,7.1484 L8.60351,5.03902 C8.60351,4.5898 8.31054,4.2871 7.86133,4.2871 C7.43164,4.2871 7.13867,4.5898 7.13867,5.03902 L7.13867,7.1484 L5.02929,7.1484 C4.58008,7.1484 4.27734,7.45113 4.27734,7.89058 C4.27734,8.32027 4.58008,8.61324 5.02929,8.61324 Z" id="Shape"></path>
                </g>
                <g id="Group" transform="translate(283.254050, 1915.988300)" fill="#000000" fill-rule="nonzero">
                    <path d="M9.96095,19.92186 C15.41015,19.92186 19.92185,15.40037 19.92185,9.96092 C19.92185,4.5117 15.40035,0 9.95115,0 C4.51172,0 8.8817842e-16,4.5117 8.8817842e-16,9.96092 C8.8817842e-16,15.40037 4.52148,19.92186 9.96095,19.92186 Z M9.96095,18.2617 C5.35156,18.2617 1.66992,14.57029 1.66992,9.96092 C1.66992,5.3515 5.34179,1.6601 9.95115,1.6601 C14.56055,1.6601 18.25195,5.3515 18.261769,9.96092 C18.27145,14.57029 14.57035,18.2617 9.96095,18.2617 Z M6.24023,10.78123 L9.13085,10.78123 L9.13085,13.69139 C9.13085,14.17967 9.46285,14.5117 9.94145,14.5117 C10.42965,14.5117 10.77145,14.17967 10.77145,13.69139 L10.77145,10.78123 L13.68165,10.78123 C14.16995,10.78123 14.50195,10.4492 14.50195,9.97068 C14.50195,9.4824 14.16995,9.14061 13.68165,9.14061 L10.77145,9.14061 L10.77145,6.25 C10.77145,5.7422 10.42965,5.4101 9.94145,5.4101 C9.46285,5.4101 9.13085,5.7519 9.13085,6.25 L9.13085,9.14061 L6.24023,9.14061 C5.73242,9.14061 5.40039,9.4824 5.40039,9.97068 C5.40039,10.4492 5.74218,10.78123 6.24023,10.78123 Z" id="Shape"></path>
                </g>
                <g id="Group" transform="translate(307.179860, 1913.224600)" fill="#000000" fill-rule="nonzero">
                    <path d="M12.71484,25.43946 C19.67774,25.43946 25.43944,19.6777438 25.43944,12.72462 C25.43944,5.7617 19.66794,0 12.70504,0 C5.75195,0 0,5.7617 0,12.72462 C0,19.6777438 5.76172,25.43946 12.71484,25.43946 Z M12.71484,23.62306 C6.67969,23.62306 1.82617,18.75978 1.82617,12.72462 C1.82617,6.6797 6.66992,1.8262 12.70504,1.8262 C18.75004,1.8262 23.60354,6.6797 23.6132548,12.72462 C23.62304,18.75978 18.75974,23.62306 12.71484,23.62306 Z M7.80274,13.63282 L11.80664,13.63282 L11.80664,17.64649 C11.80664,18.1836 12.17774,18.5547 12.69534,18.5547 C13.23244,18.5547 13.60354,18.1836 13.60354,17.64649 L13.60354,13.63282 L17.62694,13.63282 C18.15434,13.63282 18.53514,13.26173 18.53514,12.74415 C18.53514,12.20704 18.16404,11.82618 17.62694,11.82618 L13.60354,11.82618 L13.60354,7.8223 C13.60354,7.2656 13.23244,6.8945 12.69534,6.8945 C12.17774,6.8945 11.80664,7.2754 11.80664,7.8223 L11.80664,11.82618 L7.80274,11.82618 C7.24609,11.82618 6.875,12.20704 6.875,12.74415 C6.875,13.26173 7.25586,13.63282 7.80274,13.63282 Z" id="Shape"></path>
                </g>
                <text id="Design-Variations" fill="#000000" fill-rule="nonzero" font-family="Helvetica-Bold, Helvetica" font-size="13" font-weight="bold">
                    <tspan x="263" y="1953">Design Variations</tspan>
                </text>
                <text id="Symbols-are-supported-in-up-to-nine-weights-and-three-scales." fill="#000000" fill-rule="nonzero" font-family="Helvetica" font-size="13" font-weight="normal">
                    <tspan x="263" y="1971">Symbols are supported in up to nine weights and three scales.</tspan>
                </text>
                <text id="For-optimal-layout-with-text-and-other-symbols,-vertically-align" fill="#000000" fill-rule="nonzero" font-family="Helvetica" font-size="13" font-weight="normal">
                    <tspan x="263" y="1989">For optimal layout with text and other symbols, vertically align</tspan>
                </text>
                <text id="symbols-with-the-adjacent-text." fill="#000000" fill-rule="nonzero" font-family="Helvetica" font-size="13" font-weight="normal">
                    <tspan x="263" y="2007">symbols with the adjacent text.</tspan>
                </text>
                <line x1="776" y1="1919" x2="776" y2="1933" id="Path" stroke="#00AEEF" stroke-width="0.5"></line>
                <g id="Group" transform="translate(778.490230, 1918.712900)" fill="#000000" fill-rule="nonzero">
                    <path d="M0.82032,14.414053 C1.33789,14.414053 1.5918,14.2187406 1.77735,13.681631 L3.03711,10.2246 L8.79887,10.2246 L10.05857,13.681631 C10.24417,14.2187406 10.49807,14.414053 11.00587,14.414053 C11.52347,14.414053 11.85547,14.101553 11.85547,13.613272 C11.85547,13.447256 11.82617,13.300772 11.74807,13.08593 L7.16797,0.8984 C6.94336,0.293 6.54297,0 5.91797,0 C5.3125,0 4.90235,0.293 4.6875,0.8887 L0.10743,13.09569 C0.0293,13.310538 -4.4408921e-16,13.457022 -4.4408921e-16,13.623038 C-4.4408921e-16,14.111319 0.3125,14.414053 0.82032,14.414053 Z M3.51563,8.74999 L5.88868,2.1777 L5.9375,2.1777 L8.31057,8.74999 L3.51563,8.74999 Z" id="Shape"></path>
                </g>
                <line x1="792.836" y1="1919" x2="792.836" y2="1933" id="Path" stroke="#00AEEF" stroke-width="0.5"></line>
                <text id="Margins" fill="#000000" fill-rule="nonzero" font-family="Helvetica-Bold, Helvetica" font-size="13" font-weight="bold">
                    <tspan x="776" y="1953">Margins</tspan>
                </text>
                <text id="Leading-and-trailing-margins-on-the-left-and-right-side-of-each-symbol" fill="#000000" fill-rule="nonzero" font-family="Helvetica" font-size="13" font-weight="normal">
                    <tspan x="776" y="1971">Leading and trailing margins on the left and right side of each symbol</tspan>
                </text>
                <text id="can-be-adjusted-by-modifying-the-x-location-of-the-margin-guidelines." fill="#000000" fill-rule="nonzero" font-family="Helvetica" font-size="13" font-weight="normal">
                    <tspan x="776" y="1989">can be adjusted by modifying the x-location of the margin guidelines.</tspan>
                </text>
                <text id="Modifications-are-automatically-applied-proportionally-to-all" fill="#000000" fill-rule="nonzero" font-family="Helvetica" font-size="13" font-weight="normal">
                    <tspan x="776" y="2007">Modifications are automatically applied proportionally to all</tspan>
                </text>
                <text id="scales-and-weights." fill="#000000" fill-rule="nonzero" font-family="Helvetica" font-size="13" font-weight="normal">
                    <tspan x="776" y="2025">scales and weights.</tspan>
                </text>
                <g id="Group" transform="translate(1291.248126, 1914.517396)" fill="#000000" fill-rule="nonzero">
                    <path d="M0.593673634,20.347834 L2.29289363,22.056824 C3.15226363,22.925964 4.13859363,22.867374 5.06632363,21.841984 L15.2420736,10.631044 C15.5057736,10.718934 15.7791736,10.699404 16.0916736,10.640804 L17.1561736,10.445494 L17.8202736,11.119324 L17.7811736,11.675964 C17.7420736,12.174014 17.8690736,12.554874 18.3573736,13.033384 L19.1190736,13.775574 C19.5975736,14.254084 20.2127736,14.283384 20.6815736,13.814634 L23.5916736,10.894714 C24.0604736,10.425964 24.0409736,9.83026404 23.5623736,9.35174404 L22.7909736,8.59002404 C22.3123736,8.11150404 21.9413736,7.95530404 21.4627736,7.99430404 L20.8866736,8.04310404 L20.2420736,7.40840404 L20.4862736,6.28530404 C20.6131736,5.71890404 20.4569736,5.27950404 19.8709736,4.69350404 L17.6737736,2.50600404 C14.3338736,-0.814295964 9.90027363,-0.736195964 7.00968363,2.15450404 C6.58976363,2.56460404 6.56046363,3.14080404 6.79484363,3.53140404 C7.02921363,3.89280404 7.48820363,4.12710404 8.13277363,3.96110404 C9.59757363,3.61930404 11.1209736,3.56070404 12.5467736,4.49820404 L11.9608736,5.95330404 C11.7655736,6.43180404 11.7362736,6.83220404 11.8631736,7.19350404 L0.798753634,17.584166 C-0.187576366,18.5021352 -0.265706366,19.478698 0.593673634,20.347834 Z M8.50387363,2.52560404 C10.9354736,0.748204036 14.2264736,1.05100404 16.4530736,3.27750404 L18.8846736,5.68960404 C19.1190736,5.92400404 19.1580736,6.10960404 19.0897736,6.45140404 L18.7674736,7.93570404 L20.2713736,9.42010404 L21.2577736,9.36151404 C21.5116736,9.35174404 21.5897736,9.37127404 21.7850736,9.56658404 L22.3612736,10.142764 L19.9198736,12.584164 L19.3436736,12.007994 C19.1483736,11.812684 19.1190736,11.734554 19.1288736,11.470884 L19.1971736,10.494324 L17.7030736,9.00994404 L16.1795736,9.26385404 C15.8573736,9.33221404 15.7108736,9.30291404 15.4666736,9.06854404 L13.4647736,7.06660404 C13.2108736,6.83220404 13.1815736,6.66620404 13.3377736,6.29510404 L14.2166736,4.20530404 C12.6541736,2.75020404 10.6229736,2.12520404 8.59167363,2.72090404 C8.43547363,2.75990404 8.37687363,2.63300404 8.50387363,2.52560404 Z M3.02531363,20.787304 L1.85343363,19.625184 C1.38468363,19.166198 1.49210363,18.824401 1.89249363,18.4630728 L12.7030736,8.28730404 L14.1678736,9.77166404 L4.17765363,20.757994 C3.82609363,21.158384 3.49406363,21.256044 3.02531363,20.787304 Z" id="Shape"></path>
                </g>
                <text id="Exporting" fill="#000000" fill-rule="nonzero" font-family="Helvetica-Bold, Helvetica" font-size="13" font-weight="bold">
                    <tspan x="1289" y="1953">Exporting</tspan>
                </text>
                <text id="Symbols-should-be-outlined-when-exporting-to-ensure-the" fill="#000000" fill-rule="nonzero" font-family="Helvetica" font-size="13" font-weight="normal">
                    <tspan x="1289" y="1971">Symbols should be outlined when exporting to ensure the</tspan>
                </text>
                <text id="design-is-preserved-when-submitting-to-Xcode." fill="#000000" fill-rule="nonzero" font-family="Helvetica" font-size="13" font-weight="normal">
                    <tspan x="1289" y="1989">design is preserved when submitting to Xcode.</tspan>
                </text>
                <text id="template-version" fill="#000000" fill-rule="nonzero" font-family="Helvetica" font-size="13" font-weight="normal">
                    <tspan x="2952" y="1933">Template v.2.0</tspan>
                </text>
                <text id="Requires-Xcode-12-or-greater" fill="#000000" fill-rule="nonzero" font-family="Helvetica" font-size="13" font-weight="normal">
                    <tspan x="2865" y="1951">Requires Xcode 12 or greater</tspan>
                </text>
                <text id="Generated-from-mappin" fill="#000000" fill-rule="nonzero" font-family="Helvetica" font-size="13" font-weight="normal">
                    <tspan x="2898" y="1969">Generated from mappin</tspan>
                </text>
                <text id="Typeset-at-100-points" fill="#000000" fill-rule="nonzero" font-family="Helvetica" font-size="13" font-weight="normal">
                    <tspan x="2912" y="1987">Typeset at 100 points</tspan>
                </text>
                <text id="Small" fill="#000000" fill-rule="nonzero" font-family="Helvetica" font-size="13" font-weight="normal">
                    <tspan x="263" y="726">Small</tspan>
                </text>
                <text id="Medium" fill="#000000" fill-rule="nonzero" font-family="Helvetica" font-size="13" font-weight="normal">
                    <tspan x="263" y="1156">Medium</tspan>
                </text>
                <text id="Large" fill="#000000" fill-rule="nonzero" font-family="Helvetica" font-size="13" font-weight="normal">
                    <tspan x="263" y="1586">Large</tspan>
                </text>
            </g>
            <g id="Guides" transform="translate(263.000000, 625.041000)">
                <g id="H-reference" transform="translate(76.976562, 0.500000)" fill="#27AAE1" fill-rule="nonzero">
                    <path d="M-1.22124533e-15,70.459 L2.685548,70.459 L12.011738,45.9961 L44.775438,45.9961 L54.150438,70.459 L56.787138,70.459 L29.638638,0 L27.148438,0 L-1.22124533e-15,70.459 Z M28.369138,3.3203 L28.466838,3.3203 L43.896438,43.75 L12.890638,43.75 L28.369138,3.3203 Z" id="Shape"></path>
                </g>
                <line x1="0" y1="70.959" x2="2773" y2="70.959" id="Baseline-S" stroke="#27AAE1" stroke-width="0.5"></line>
                <line x1="0" y1="0.5" x2="2773" y2="0.5" id="Capline-S" stroke="#27AAE1" stroke-width="0.5"></line>
                <g id="H-reference" transform="translate(76.976562, 430.500000)" fill="#27AAE1" fill-rule="nonzero">
                    <path d="M-1.22124533e-15,70.459 L2.685548,70.459 L12.011738,45.9961 L44.775438,45.9961 L54.150438,70.459 L56.787138,70.459 L29.638638,0 L27.148438,0 L-1.22124533e-15,70.459 Z M28.369138,3.3203 L28.466838,3.3203 L43.896438,43.75 L12.890638,43.75 L28.369138,3.3203 Z" id="Shape"></path>
                </g>
                <line x1="0" y1="500.959" x2="2773" y2="500.959" id="Baseline-M" stroke="#27AAE1" stroke-width="0.5"></line>
                <line x1="0" y1="430.499" x2="2773" y2="430.499" id="Capline-M" stroke="#27AAE1" stroke-width="0.5"></line>
                <g id="H-reference" transform="translate(76.976562, 860.500000)" fill="#27AAE1" fill-rule="nonzero">
                    <path d="M-1.22124533e-15,70.459 L2.685548,70.459 L12.011738,45.9961 L44.775438,45.9961 L54.150438,70.459 L56.787138,70.459 L29.638638,0 L27.148438,0 L-1.22124533e-15,70.459 Z M28.369138,3.3203 L28.466838,3.3203 L43.896438,43.75 L12.890638,43.75 L28.369138,3.3203 Z" id="Shape"></path>
                </g>
                <line x1="0" y1="930.959" x2="2773" y2="930.959" id="Baseline-L" stroke="#27AAE1" stroke-width="0.5"></line>
                <line x1="0" y1="860.499" x2="2773" y2="860.499" id="Capline-L" stroke="#27AAE1" stroke-width="0.5"></line>
                <line x1="1139.75" y1="405.749" x2="1139.75" y2="525.079" id="left-margin" stroke="#00AEEF" stroke-width="0.5"></line>
                <line x1="1233.94" y1="405.749" x2="1233.94" y2="525.079" id="right-margin" stroke="#00AEEF" stroke-width="0.5"></line>
            </g>
            <g id="Symbols" transform="translate(1397.012500, 619.894500)">
                <g id="Regular-L" transform="translate(0.000000, 833.000000)">
                    <path d="M51.9271159,133 C86.3951107,101.570873 103.416822,74.3104771 102.992251,51.2188126 C102.992251,22.3960721 79.2599499,0 51.9271159,0 C24.5942819,0 0,22.3960721 0,51.2188126 C0.0862580382,75.1633613 17.3952967,102.423757 51.9271159,133 Z" id="Oval" fill="#4F3637"></path>
                    <path d="M57.51481,27.3823529 C60.7633188,27.3823529 63.3967555,30.0157896 63.3967555,33.2642984 L63.3965565,41.9363529 L70.7021419,41.9371463 C72.1631361,41.9371463 73.3928642,43.0072663 73.6095546,44.4346271 L73.6306448,44.6075796 L76.2921967,73.4180258 C76.3046599,73.5529365 76.3109015,73.6883498 76.3109015,73.823835 C76.3109015,76.1885583 74.4502964,78.118714 72.1131815,78.230207 L71.8994423,78.2352941 L31.8135438,78.2352941 C29.3771622,78.2352941 27.4020847,76.2602166 27.4020847,73.823835 C27.4020847,73.6883498 27.4083263,73.5529365 27.4207895,73.4180258 L30.0823414,44.6075796 C30.2221138,43.094588 31.4914103,41.9371463 33.0108443,41.9371463 L40.7575565,41.9363529 L40.7583863,33.2642984 C40.7583863,30.0157896 43.391823,27.3823529 46.6403318,27.3823529 L57.51481,27.3823529 Z M57.22173,30.2933116 L46.9334118,30.2933116 C45.3671665,30.2933116 44.0868826,31.5176581 43.9974316,33.0614799 L43.9924391,33.2342844 L43.9924391,41.9371463 L60.1627028,41.9371463 L60.1627028,33.2342844 C60.1627028,31.61003 58.8459844,30.2933116 57.22173,30.2933116 Z" id="Combined-Shape" fill="#FFFFFF"></path>
                </g>
                <g id="Regular-M" transform="translate(11.987500, 419.105500)">
                    <path d="M40.3317405,103 C67.1029986,78.6601497 80.3237455,57.5487154 79.9939812,39.6656969 C79.9939812,17.3443265 61.5611262,0 40.3317405,0 C19.1023549,0 0,17.3443265 0,39.6656969 C0.0669965345,58.2092196 13.51091,79.320654 40.3317405,103 Z" id="Oval" fill="#4F3637"></path>
                    <path d="M44.6805508,21.2058824 C47.1987747,21.2058824 49.2401985,23.2473062 49.2401985,25.76553 L49.2393605,32.4768824 L54.9188805,32.4776396 C56.0429741,32.4776396 56.9904985,33.2948527 57.1688058,34.3890026 L57.1889815,34.5471353 L59.2556525,56.8530074 C59.26537,56.9578907 59.2702366,57.063167 59.2702366,57.1684995 C59.2702366,58.9942118 57.8395388,60.4857668 56.0381322,60.5831752 L55.8505009,60.5882353 L24.7032748,60.5882353 C22.8146069,60.5882353 21.2835391,59.0571674 21.2835391,57.1684995 C21.2835391,57.063167 21.2884056,56.9578907 21.2981232,56.8530074 L23.3647942,34.5471353 C23.4734372,33.3745357 24.4572734,32.4776396 25.6348952,32.4776396 L31.6563605,32.4768824 L31.6569991,25.76553 C31.6569991,23.2473062 33.6984229,21.2058824 36.2166468,21.2058824 L44.6805508,21.2058824 Z M44.448489,23.4602338 L36.4487085,23.4602338 C35.2420596,23.4602338 34.2543579,24.3976584 34.1741443,25.5839669 L34.1688847,25.7400576 L34.1688847,32.4776396 L46.7283128,32.4776396 L46.7283128,25.7400576 C46.7283128,24.4809457 45.7076009,23.4602338 44.448489,23.4602338 Z" id="Combined-Shape" fill="#FFFFFF"></path>
                </g>
                <g id="Regular-S" transform="translate(21.000000, 0.000000)">
                    <path d="M31.2570989,80 C52.0048239,61.0952619 62.2509027,44.6980314 61.9953354,30.8083083 C61.9953354,13.4713216 47.7098728,0 31.2570989,0 C14.804325,0 0,13.4713216 0,30.8083083 C0.0519223143,45.2110444 10.4709553,61.6082749 31.2570989,80 Z" id="Oval" fill="#4F3637"></path>
                    <path d="M34.6046286,16.4705882 C36.5688432,16.4705882 38.1611538,18.0628988 38.1611538,20.0271134 L38.1607428,25.2245882 L42.5514134,25.2253511 C43.4190575,25.2253511 44.1518147,25.8495388 44.3017982,26.689524 L44.3221251,26.8399136 L45.9220401,44.1458795 C45.9295869,44.227512 45.9333664,44.309449 45.9333664,44.3914296 C45.9333664,45.8079306 44.8292309,46.9665468 43.4346627,47.0535758 L43.2659725,47.0588235 L19.1632037,47.0588235 C17.6900427,47.0588235 16.4958098,45.8645906 16.4958098,44.3914296 C16.4958098,44.309449 16.4995892,44.227512 16.507136,44.1458795 L18.107051,26.8399136 C18.1916214,25.9251325 18.9590807,25.2253511 19.8777628,25.2253511 L24.5337428,25.2245882 L24.5341743,20.0271134 C24.5341743,18.0628988 26.1264849,16.4705882 28.0906995,16.4705882 L34.6046286,16.4705882 Z M34.4361798,18.2215408 L28.2591482,18.2215408 C27.3261463,18.2215408 26.5609661,18.940071 26.4867805,19.8539582 L26.4808856,19.9998034 L26.4808856,25.2253511 L36.2144424,25.2253511 L36.2144424,19.9998034 C36.2144424,19.0176961 35.4182872,18.2215408 34.4361798,18.2215408 Z" id="Combined-Shape" fill="#FFFFFF"></path>
                </g>
            </g>
        </g>
    </g>
</svg>